<svg xmlns="http://www.w3.org/2000/svg" width="24" height="24" viewBox="0 0 24 24">
<path fill="#1f1f1f" d="M12.4,20.6l-2.25,2.3a1,1,0,0,1-1.4,0,14.39,14.39,0,0,1-3.56-5.07A15.2,15.2,0,0,1,4,12,15.06,15.06,0,0,1,5.19,6.19,14.55,14.55,0,0,1,8.75,1.1a1,1,0,0,1,1.4,0L12.4,3.4a1,1,0,0,1,.3.64.94.94,0,0,1-.2.66L10.3,7.6a1.1,1.1,0,0,1-.35.3A.93.93,0,0,1,9.5,8H6.65A13.86,13.86,0,0,0,6.18,10a11.76,11.76,0,0,0,0,4.1A13.86,13.86,0,0,0,6.65,16H9.5a.93.93,0,0,1,.45.1,1.1,1.1,0,0,1,.35.3l2.2,2.9a.94.94,0,0,1,.2.66A1,1,0,0,1,12.4,20.6Z"/>
<rect fill="#1f1f1f" x="16" y="3" width="4" height="12"/>
<circle fill="#1f1f1f" cx="18" cy="19" r="2"/>
</svg>
