<svg xmlns="http://www.w3.org/2000/svg" width="24" height="24" viewBox="0 0 24 24">
<circle fill="#1f1f1f" cx="18" cy="19" r="2"/>
<path fill="#1f1f1f" d="M12.08,18.75H12a6.75,6.75,0,0,1,0-13.5h.08l.42-.55A.94.94,0,0,0,12.7,4a1,1,0,0,0-.3-.64L10.15,1.1a1,1,0,0,0-1.4,0A14.55,14.55,0,0,0,5.19,6.19,15.06,15.06,0,0,0,4,12a15.2,15.2,0,0,0,1.19,5.83A14.39,14.39,0,0,0,8.75,22.9a1,1,0,0,0,1.4,0l2.25-2.3a1,1,0,0,0,.3-.64.94.94,0,0,0-.2-.66Z"/>
<path fill="#1f1f1f" d="M16,3V6.57A6.72,6.72,0,0,1,18,15h2V3Z"/>
<path fill="#1f1f1f" d="M12,6.81A5.19,5.19,0,1,0,17.19,12,5.19,5.19,0,0,0,12,6.81Zm0,8.31a.52.52,0,0,1-.52-.52.52.52,0,0,1,1,0A.52.52,0,0,1,12,15.12ZM12.52,13h-1V8.88h1Z"/>
</svg>
